<?xml version="1.0" standalone="no"?>
<!DOCTYPE svg PUBLIC "-//W3C//DTD SVG 20010904//EN"
 "http://www.w3.org/TR/2001/REC-SVG-20010904/DTD/svg10.dtd">
<svg version="1.0" xmlns="http://www.w3.org/2000/svg"
 width="500.000000pt" height="500.000000pt" viewBox="0 0 500.000000 500.000000"
 preserveAspectRatio="xMidYMid meet">

<g transform="translate(0.000000,500.000000) scale(0.100000,-0.100000)"
fill="#000000" stroke="none">
<path d="M0 2500 l0 -2500 2500 0 2500 0 0 2500 0 2500 -2500 0 -2500 0 0
-2500z m1375 767 c1 -16 7 -32 15 -37 11 -7 14 -25 12 -70 -2 -35 0 -60 6 -60
13 0 21 19 46 107 21 73 21 73 46 60 14 -8 31 -12 37 -10 6 2 14 -1 18 -6 3
-6 19 -11 34 -11 29 0 148 -67 233 -130 50 -37 59 -63 36 -100 -10 -15 -10
-22 -1 -31 10 -10 18 -6 39 16 26 28 27 28 41 9 7 -10 23 -29 34 -42 l20 -23
-56 -50 c-30 -28 -55 -57 -55 -65 0 -30 32 -26 84 10 29 20 57 36 62 36 9 0
26 -34 38 -75 5 -17 0 -23 -26 -33 -18 -6 -49 -22 -68 -34 -35 -21 -35 -22
-11 -28 34 -8 37 -28 7 -40 -14 -5 -26 -17 -26 -26 0 -17 31 -17 153 3 37 6
37 5 37 -28 -1 -46 -21 -69 -66 -76 -44 -7 -94 -29 -94 -42 0 -12 37 -21 87
-21 52 0 73 -8 73 -27 0 -13 -10 -15 -64 -9 -54 5 -67 3 -87 -13 l-24 -19 25
-10 c14 -5 49 -13 78 -17 31 -4 56 -13 59 -21 8 -22 -6 -64 -22 -64 -11 0 -15
-11 -15 -37 0 -54 -29 -108 -57 -107 -17 0 -20 -3 -12 -12 12 -15 -2 -49 -26
-58 -8 -3 -15 -12 -15 -20 0 -9 -11 -23 -25 -32 -14 -9 -25 -25 -25 -35 0 -10
-8 -22 -17 -28 -17 -9 -17 -10 0 -28 27 -31 21 -43 -24 -43 -33 0 -46 -6 -70
-32 -29 -32 -50 -41 -212 -95 -70 -23 -82 -24 -104 -12 -28 15 -60 13 -82 -4
-10 -9 -16 -7 -26 6 -14 20 -32 22 -37 5 -6 -17 -28 0 -28 22 0 22 -23 33 -39
17 -6 -6 -11 -21 -11 -34 0 -13 -4 -23 -10 -23 -5 0 -10 17 -10 39 0 41 -20
67 -45 57 -8 -3 -15 -14 -15 -25 0 -11 -5 -32 -12 -46 -9 -20 -18 -25 -49 -25
-46 0 -54 10 -39 56 7 19 9 41 7 49 -7 16 -47 9 -47 -9 -1 -17 -38 -62 -46
-54 -4 4 -1 21 6 38 17 42 6 49 -26 17 -30 -31 -62 -34 -104 -12 -21 11 -30
23 -30 40 0 23 -2 23 -55 18 -66 -7 -82 12 -45 52 19 20 21 27 10 40 -7 8 -19
15 -26 15 -24 0 -16 20 26 67 22 25 40 50 40 55 0 22 -37 19 -84 -7 l-51 -28
24 27 c22 24 23 28 10 42 -13 13 -20 13 -44 2 -25 -11 -29 -10 -46 11 -11 13
-19 27 -19 32 0 5 25 21 55 34 38 18 55 31 55 44 0 34 -21 41 -84 27 -63 -15
-65 -14 -69 39 -2 27 1 28 62 41 35 7 66 16 70 19 3 4 -6 17 -21 30 -25 22
-29 22 -68 9 -43 -15 -60 -12 -60 11 0 17 22 25 73 25 56 0 87 9 87 26 0 20
-19 27 -90 33 l-65 6 -3 44 c-2 24 1 48 5 52 5 5 36 6 69 1 78 -11 88 -7 68
23 -12 18 -13 28 -4 45 14 26 10 33 -40 55 -30 14 -39 23 -34 34 3 9 10 31 16
49 5 17 14 32 19 32 6 0 30 -13 54 -30 24 -16 51 -30 59 -30 30 0 17 45 -24
85 -42 41 -50 62 -26 71 8 3 16 14 19 25 7 25 29 24 52 -1 37 -41 68 -10 34
33 -26 34 -24 42 14 68 17 13 36 29 40 36 4 7 36 26 71 42 34 17 68 37 75 45
20 24 50 20 57 -9 4 -15 13 -25 23 -25 26 0 30 8 20 43 -5 17 -7 32 -6 33 2 2
21 6 44 10 38 6 42 4 45 -17 4 -31 33 -36 48 -8 7 12 8 19 2 15 -5 -3 -15 1
-22 9 -11 13 -8 15 19 15 28 0 31 -3 32 -32 l2 -33 4 30 c6 48 8 50 59 50 47
0 49 -1 49 -28z m-775 -557 c0 -5 -4 -10 -10 -10 -5 0 -10 5 -10 10 0 6 5 10
10 10 6 0 10 -4 10 -10z m1475 0 c-3 -5 -10 -10 -16 -10 -5 0 -9 5 -9 10 0 6
7 10 16 10 8 0 12 -4 9 -10z m410 -155 c26 -41 51 -77 55 -80 4 -3 31 31 59
75 l52 80 54 0 55 0 0 -115 0 -115 -45 0 -44 0 -3 73 -3 72 -44 -72 c-40 -67
-46 -73 -77 -73 -31 0 -36 6 -76 72 l-43 73 -3 -73 -3 -72 -44 0 -45 0 0 115
0 115 54 0 55 0 46 -75z m564 57 c19 -9 41 -28 50 -41 l15 -23 -60 6 c-131 14
-137 13 -154 -16 -11 -21 -12 -32 -4 -45 16 -26 60 -45 89 -37 27 7 35 24 10
24 -8 0 -15 7 -15 15 0 12 14 15 65 15 l65 0 0 -55 c0 -48 -3 -55 -19 -55 -11
0 -21 5 -23 10 -2 7 -14 7 -36 -1 -49 -17 -156 -7 -189 17 -32 24 -49 78 -39
118 8 33 49 73 79 79 56 11 134 6 166 -11z m333 8 c50 -14 78 -52 78 -104 0
-79 -50 -116 -155 -116 -105 0 -155 37 -155 116 0 50 28 90 73 103 44 13 115
13 159 1z m216 -82 l3 -88 84 0 c84 0 85 0 85 -25 l0 -25 -135 0 -135 0 0 108
c0 60 3 112 7 116 4 4 25 6 48 4 l40 -3 3 -87z m416 82 c80 -13 106 -38 106
-101 0 -26 -3 -55 -6 -64 -14 -34 -65 -49 -191 -53 l-123 -4 0 116 0 116 78 0
c42 0 104 -4 136 -10z m-1046 -472 c22 -22 14 -49 -18 -61 -18 -7 -30 -19 -30
-29 0 -10 -4 -18 -10 -18 -6 0 -10 27 -10 60 0 59 0 60 28 60 15 0 33 -5 40
-12z m142 -38 c0 -47 2 -50 25 -50 14 0 25 -4 25 -10 0 -5 -16 -10 -35 -10
l-35 0 0 60 c0 33 4 60 10 60 6 0 10 -22 10 -50z m234 -6 c17 -55 14 -86 -5
-51 -6 9 -19 17 -29 17 -10 0 -23 -8 -29 -17 -19 -35 -22 -4 -5 51 12 38 23
56 34 56 11 0 22 -18 34 -56z m149 30 l13 -25 12 25 c6 14 16 26 22 26 13 0
12 -10 -5 -40 -8 -14 -14 -37 -15 -52 0 -18 -5 -28 -15 -28 -10 0 -15 10 -15
28 -1 15 -7 38 -15 52 -17 30 -18 40 -5 40 5 0 15 -12 23 -26z"/>
<path d="M1470 3163 c0 -15 -3 -38 -6 -50 -9 -33 11 -28 26 6 14 34 11 62 -7
69 -9 2 -13 -6 -13 -25z"/>
<path d="M1220 3116 c0 -9 5 -16 10 -16 6 0 10 4 10 9 0 6 -4 13 -10 16 -5 3
-10 -1 -10 -9z"/>
<path d="M1181 3104 c0 -11 3 -14 6 -6 3 7 2 16 -1 19 -3 4 -6 -2 -5 -13z"/>
<path d="M928 3083 c-28 -33 -41 -118 -33 -227 10 -151 10 -156 -8 -221 -16
-59 -25 -98 -26 -122 -1 -8 -17 -10 -56 -6 -34 4 -55 2 -55 -4 0 -6 27 -13 60
-17 39 -5 60 -12 60 -20 0 -7 11 -34 25 -61 l24 -48 -29 -34 c-82 -93 -54
-243 60 -321 18 -12 42 -36 52 -53 10 -16 33 -36 52 -44 55 -23 226 -51 226
-36 0 10 112 13 119 3 7 -10 116 0 192 19 54 12 79 36 103 98 29 76 32 159 7
240 l-22 72 46 52 c25 28 50 67 56 87 15 44 24 50 77 50 24 0 42 5 42 11 0 8
-16 9 -51 5 -48 -7 -50 -6 -48 16 1 13 0 30 -3 38 -3 8 -15 50 -27 92 -18 67
-19 84 -10 130 16 74 7 226 -17 274 -16 33 -24 39 -47 37 -34 -2 -107 -47
-166 -102 -41 -38 -46 -39 -91 -34 -46 5 -48 7 -56 46 l-9 40 -50 -40 c-40
-32 -61 -41 -105 -46 -54 -6 -56 -5 -95 34 -47 47 -120 95 -155 104 -18 4 -31
1 -42 -12z m792 -71 c11 -42 12 -217 1 -246 -7 -17 -10 -15 -29 15 -11 19 -32
45 -46 58 l-26 24 41 75 c22 40 38 76 36 78 -6 7 -60 -63 -81 -104 -13 -25
-22 -32 -34 -26 -9 4 -29 9 -44 12 -16 2 -28 7 -28 11 0 25 174 156 192 145 4
-3 12 -21 18 -42z m-697 12 c23 -15 63 -47 89 -71 l46 -45 56 9 c53 9 56 9 50
-9 -3 -10 4 -38 16 -62 23 -49 72 -79 117 -74 26 3 25 3 -12 28 -21 14 -46 41
-57 60 -14 28 -18 30 -18 13 0 -12 12 -36 27 -54 l28 -33 -27 18 c-33 22 -52
67 -43 103 6 27 41 73 55 73 3 0 6 -24 6 -54 -1 -47 3 -59 28 -85 40 -42 67
-42 32 0 -25 29 -43 75 -34 85 12 11 110 -18 168 -51 109 -61 166 -129 191
-229 12 -48 11 -50 -14 -72 -15 -13 -43 -26 -62 -30 -21 -4 -35 -12 -35 -21 0
-10 6 -13 16 -9 9 3 25 6 36 6 11 0 33 14 49 31 26 28 29 29 29 10 0 -12 -6
-21 -12 -22 -10 0 -10 -2 0 -6 6 -2 12 -11 12 -18 0 -14 -30 -25 -72 -25 -16
0 -28 -6 -28 -13 0 -8 14 -11 45 -9 50 4 52 0 29 -47 -40 -79 -139 -142 -255
-160 -149 -25 -330 -6 -433 45 -64 31 -84 51 -121 118 l-27 49 56 -5 c72 -6
70 14 -2 25 -51 8 -52 9 -52 45 l0 35 23 -20 c12 -12 40 -26 61 -32 68 -18 62
7 -7 29 -57 18 -71 45 -53 103 30 99 92 172 191 226 38 21 39 22 10 18 -16 -2
-37 -7 -45 -11 -12 -5 -22 4 -37 31 -27 48 -95 126 -86 98 3 -11 14 -31 23
-45 10 -14 27 -45 39 -69 l22 -43 -21 -15 c-12 -8 -35 -33 -51 -56 -16 -22
-29 -36 -29 -31 0 5 -5 40 -10 77 -9 63 0 183 16 209 9 14 33 9 77 -18z m-51
-712 c14 -11 15 -19 7 -34 -13 -24 -14 -23 -34 26 -17 39 -11 41 27 8z m-23
-101 c13 -23 21 -171 10 -171 -13 0 -59 58 -73 92 -21 50 -20 84 5 138 l21 45
12 -40 c7 -22 18 -51 25 -64z m141 -40 c0 -42 4 -91 9 -109 8 -27 7 -34 -10
-42 -11 -6 -25 -25 -32 -42 l-13 -32 -24 39 c-32 51 -41 199 -17 258 l16 37
36 -17 35 -17 0 -75z m576 68 c28 -76 8 -256 -31 -289 -13 -10 -15 -9 -15 12
0 14 -9 37 -20 51 -17 21 -18 29 -9 57 7 19 10 64 6 110 -5 72 -3 79 17 88 30
15 38 10 52 -29z m-86 -60 c0 -43 -31 -184 -44 -196 -3 -3 -13 0 -21 7 -9 7
-33 14 -53 15 -36 2 -37 4 -40 44 -2 30 3 50 19 72 11 16 19 32 16 35 -2 3
-19 -17 -36 -43 -17 -26 -40 -59 -51 -72 -24 -28 -30 -25 -91 57 -60 79 -66
84 -36 28 33 -60 38 -131 8 -121 -20 6 -72 -10 -82 -26 -14 -23 -52 97 -57
180 l-5 84 29 -7 c64 -15 298 -18 364 -4 75 17 80 14 80 -53z m-190 -199 l0
-50 -39 0 c-38 0 -39 1 -46 41 -9 50 -1 59 23 29 l19 -23 19 26 c10 15 20 27
22 27 1 0 2 -22 2 -50z m-257 -16 l17 -35 -32 3 c-33 3 -46 23 -34 54 9 25 32
15 49 -22z m457 1 c0 -29 -4 -35 -21 -35 -16 0 -19 4 -14 18 4 9 10 25 12 35
9 30 23 19 23 -18z m-329 5 c35 -19 14 -70 -30 -70 -6 0 -11 8 -11 18 0 13 -2
14 -9 3 -11 -18 -31 -5 -31 20 0 11 10 24 23 29 30 12 35 12 58 0z m252 -9
c14 -14 -2 -53 -19 -47 -8 3 -14 1 -14 -4 0 -15 -30 -12 -31 3 0 9 -2 9 -6 -1
-8 -20 -23 -3 -23 28 0 15 6 31 13 34 16 7 69 -2 80 -13z"/>
<path d="M1120 2697 c0 -3 18 -14 40 -25 39 -19 53 -16 27 6 -14 12 -67 27
-67 19z"/>
<path d="M1488 2684 c-16 -8 -28 -19 -28 -24 0 -5 18 0 40 11 22 12 40 23 40
25 0 8 -26 3 -52 -12z"/>
<path d="M1067 2575 c-42 -29 -45 -37 -18 -64 31 -31 86 -35 137 -11 24 12 44
26 44 32 0 5 -13 23 -29 39 -38 37 -82 38 -134 4z m93 -10 c0 -8 -4 -15 -10
-15 -5 0 -10 7 -10 15 0 8 5 15 10 15 6 0 10 -7 10 -15z"/>
<path d="M1459 2571 c-16 -16 -29 -34 -29 -39 0 -6 20 -20 45 -32 33 -16 54
-20 77 -15 71 15 89 63 36 95 -48 29 -94 26 -129 -9z m56 0 c3 -5 1 -12 -5
-16 -5 -3 -10 1 -10 9 0 18 6 21 15 7z"/>
<path d="M1290 2515 c0 -8 9 -20 20 -27 27 -17 25 -46 -5 -60 -19 -8 -28 -8
-40 2 -20 17 -32 5 -15 -15 15 -19 40 -19 65 -1 16 11 23 11 46 -3 30 -17 58
-9 68 20 4 12 2 12 -12 0 -20 -16 -62 -8 -71 15 -3 9 3 28 14 44 24 33 18 40
-32 40 -27 0 -38 -4 -38 -15z m57 -1 c-3 -3 -12 -4 -19 -1 -8 3 -5 6 6 6 11 1
17 -2 13 -5z"/>
<path d="M3257 2552 c-31 -34 -14 -88 28 -92 54 -6 85 14 85 54 0 50 -79 76
-113 38z"/>
<path d="M3890 2516 c0 -30 5 -58 11 -61 16 -11 97 5 114 21 8 9 15 26 15 38
0 37 -30 56 -88 56 l-52 0 0 -54z"/>
<path d="M2922 2123 c4 -21 33 -25 33 -3 0 8 -8 16 -18 18 -14 3 -18 -1 -15
-15z"/>
<path d="M3297 2110 c-4 -15 0 -20 13 -20 13 0 17 5 13 20 -3 11 -9 20 -13 20
-4 0 -10 -9 -13 -20z"/>
</g>
</svg>
