<?xml version="1.0" standalone="no"?>
<!DOCTYPE svg PUBLIC "-//W3C//DTD SVG 20010904//EN"
 "http://www.w3.org/TR/2001/REC-SVG-20010904/DTD/svg10.dtd">
<svg version="1.0" xmlns="http://www.w3.org/2000/svg"
 width="500.000000pt" height="500.000000pt" viewBox="0 0 500.000000 500.000000"
 preserveAspectRatio="xMidYMid meet">

<g transform="translate(0.000000,500.000000) scale(0.100000,-0.100000)"
fill="#000000" stroke="none">
<path d="M1422 2997 c-20 -24 -32 -125 -21 -181 7 -41 6 -66 -6 -112 -8 -32
-15 -65 -15 -74 0 -12 -8 -15 -35 -12 -21 3 -35 0 -35 -7 0 -6 16 -11 35 -11
31 0 36 -4 53 -42 10 -24 15 -45 10 -46 -18 -7 -38 -63 -38 -104 0 -49 29
-103 63 -119 12 -5 30 -23 38 -38 14 -24 26 -30 80 -39 78 -13 284 -9 321 6
55 22 84 138 55 221 -15 43 -15 44 10 70 14 14 31 41 39 59 12 27 19 32 49 32
19 0 35 5 35 11 0 8 -12 10 -33 6 l-33 -5 -13 61 c-14 69 -14 82 -10 182 7
159 -39 184 -147 83 -40 -37 -97 -37 -102 0 -4 28 -8 28 -48 -3 -48 -37 -87
-33 -140 14 -53 46 -98 65 -112 48z m110 -78 c39 -33 51 -38 77 -33 27 6 31 4
31 -16 0 -28 52 -80 80 -80 19 0 17 3 -12 34 -32 33 -53 41 -28 11 8 -10 9
-15 1 -15 -18 0 -25 52 -10 79 20 36 36 37 31 2 -5 -34 11 -66 40 -82 l21 -12
-21 28 c-35 45 -30 59 21 51 23 -4 44 -11 45 -16 2 -6 9 -10 16 -10 7 0 34
-18 60 -41 50 -44 63 -42 20 2 l-27 28 27 51 c36 68 27 75 -14 11 -27 -41 -36
-48 -53 -42 -12 4 -23 13 -24 18 -4 11 54 61 94 81 19 11 22 8 32 -20 13 -38
14 -133 2 -157 -7 -12 -4 -33 7 -65 17 -47 17 -48 -7 -67 -30 -24 -46 -24 -78
1 -14 11 -36 20 -49 20 -23 0 -64 -31 -64 -47 0 -10 49 -33 68 -33 7 0 23 5
35 12 12 6 35 12 50 14 15 1 37 10 47 19 19 18 20 17 20 -8 0 -23 -4 -27 -29
-27 -17 0 -33 -5 -37 -11 -5 -8 3 -10 25 -7 17 3 31 0 31 -6 0 -27 -50 -79
-100 -104 -51 -25 -65 -27 -175 -27 -111 0 -124 2 -177 28 -36 18 -65 40 -77
61 -30 48 -27 56 17 50 28 -4 33 -3 22 5 -8 6 -27 11 -42 11 -30 0 -31 1 -22
24 5 14 9 14 36 0 16 -8 35 -13 41 -11 7 2 -4 11 -24 20 -47 20 -50 25 -37 77
12 48 93 140 123 140 8 0 15 4 15 10 0 6 -9 6 -24 0 -21 -8 -27 -3 -56 41 -41
63 -50 57 -14 -8 l28 -49 -29 -37 c-29 -36 -30 -36 -38 -14 -10 24 -4 147 7
166 9 15 36 1 98 -50z m-72 -438 c0 -12 -20 -36 -20 -24 0 6 -3 19 -6 27 -5
12 -2 15 10 10 9 -3 16 -9 16 -13z m-17 -119 l2 -53 -27 31 c-31 33 -38 93
-17 132 11 20 12 19 26 -18 7 -21 15 -63 16 -92z m89 15 c3 -63 0 -74 -19 -96
l-23 -24 -16 39 c-11 27 -15 56 -11 96 6 72 11 80 42 66 21 -9 24 -18 27 -81z
m377 47 c13 -51 6 -123 -14 -150 -11 -16 -13 -16 -26 7 -16 29 -13 170 4 181
21 13 24 9 36 -38z m-59 -20 c0 -17 -7 -54 -16 -83 -11 -40 -18 -51 -27 -42
-6 6 -21 11 -33 11 -25 0 -37 37 -21 67 5 10 -5 1 -23 -20 -17 -20 -36 -34
-41 -31 -6 3 -24 24 -40 46 -16 23 -29 37 -29 32 0 -5 7 -18 15 -28 23 -30 19
-66 -6 -66 -11 0 -28 -4 -38 -10 -24 -12 -39 21 -47 99 l-6 56 156 0 156 0 0
-31z m-144 -123 c11 9 14 7 14 -15 0 -21 -5 -26 -25 -26 -22 0 -25 4 -25 33 1
27 2 29 11 14 8 -14 14 -16 25 -6z m-146 -33 c0 -12 -28 -10 -35 2 -4 6 -4 19
0 28 6 16 8 15 21 -2 8 -11 14 -23 14 -28z m298 15 c-2 -9 -8 -18 -15 -20 -7
-3 -9 3 -6 16 6 25 26 28 21 4z m-208 -12 c0 -21 -22 -33 -45 -25 -31 12 -15
44 22 44 16 0 23 -6 23 -19z m155 -5 c0 -15 -7 -20 -28 -21 -31 -2 -42 8 -33
31 9 23 61 14 61 -10z"/>
<path d="M1570 2727 c14 -8 27 -12 30 -10 7 6 -23 23 -40 23 -8 0 -4 -6 10
-13z"/>
<path d="M1779 2723 c-12 -16 -12 -17 1 -7 8 6 22 14 30 17 13 5 12 6 -1 6 -9
1 -23 -7 -30 -16z"/>
<path d="M1512 2661 c-28 -24 -20 -48 19 -56 29 -7 89 12 89 27 0 17 -41 48
-62 48 -13 -1 -33 -9 -46 -19z"/>
<path d="M1660 2622 c0 -4 5 -13 11 -19 18 -18 2 -46 -21 -40 -11 3 -18 1 -15
-3 9 -14 108 -7 111 8 1 7 0 8 -3 2 -7 -15 -29 -12 -43 5 -10 13 -10 19 5 35
18 20 17 20 -13 20 -18 0 -32 -4 -32 -8z"/>
<path d="M2170 2515 l0 -115 45 0 45 0 0 66 c0 78 9 76 55 -11 29 -54 31 -56
70 -53 37 3 41 7 77 68 l38 65 0 -67 0 -68 50 0 50 0 0 115 0 115 -57 0 -58
-1 -49 -79 c-27 -44 -50 -80 -51 -80 -2 0 -26 36 -54 80 l-51 80 -55 0 -55 0
0 -115z"/>
<path d="M2704 2616 c-43 -19 -64 -53 -64 -102 0 -101 128 -151 253 -99 10 4
17 3 17 -4 0 -6 9 -11 20 -11 18 0 20 7 20 55 l0 55 -65 0 c-58 0 -65 -2 -65
-19 0 -11 8 -22 18 -24 9 -3 -4 -5 -30 -6 -40 -1 -50 3 -63 23 -18 27 -7 69
20 80 25 9 63 7 70 -4 7 -12 115 -14 115 -2 0 11 -39 46 -67 61 -30 15 -141
13 -179 -3z"/>
<path d="M3043 2614 c-33 -16 -63 -66 -63 -104 0 -83 102 -134 219 -109 66 14
101 53 101 113 0 50 -21 83 -66 102 -45 19 -151 18 -191 -2z m138 -54 c22 -12
27 -68 7 -88 -17 -17 -74 -15 -92 4 -50 49 20 118 85 84z"/>
<path d="M3340 2515 l0 -115 136 0 135 0 -3 28 c-3 27 -4 27 -85 30 l-83 3 0
84 0 85 -50 0 -50 0 0 -115z"/>
<path d="M3640 2515 l0 -115 110 0 c117 0 182 16 200 51 6 10 10 40 10 67 0
86 -49 111 -222 112 l-98 0 0 -115z m201 45 c13 -7 19 -21 19 -45 0 -42 -20
-55 -84 -55 l-46 0 0 55 0 55 46 0 c25 0 54 -5 65 -10z"/>
<path d="M2740 2200 c0 -47 3 -60 15 -60 8 0 15 8 15 18 0 9 10 22 23 27 25
11 35 54 15 66 -7 5 -25 9 -40 9 -27 0 -28 -1 -28 -60z m54 31 c3 -5 -1 -14
-9 -21 -13 -10 -15 -9 -15 9 0 21 14 28 24 12z"/>
<path d="M2930 2200 l0 -60 35 0 c19 0 35 5 35 10 0 6 -11 10 -25 10 -23 0
-25 3 -25 50 0 28 -4 50 -10 50 -6 0 -10 -27 -10 -60z"/>
<path d="M3111 2204 c-11 -31 -21 -58 -21 -60 0 -11 29 -2 34 11 7 20 36 19
52 -2 22 -31 26 -6 8 51 -24 75 -44 75 -73 0z m49 -6 c0 -5 -6 -8 -14 -8 -9 0
-12 7 -9 21 4 16 8 17 14 7 5 -7 9 -16 9 -20z"/>
<path d="M3310 2220 c11 -21 20 -48 20 -60 0 -11 7 -20 15 -20 10 0 15 10 15
28 1 15 7 38 15 52 18 32 18 40 2 40 -8 0 -18 -10 -24 -22 l-10 -23 -12 23
c-6 12 -18 22 -27 22 -12 0 -11 -7 6 -40z"/>
</g>
</svg>
